<?xml version="1.0" encoding="UTF-8"?>
<svg id="Layer_1" data-name="Layer 1" xmlns="http://www.w3.org/2000/svg" viewBox="0 0 260.13 356.36">
  <defs>
    <style>
      .cls-1 {
        fill: #61bf82;
      }

      .cls-2 {
        fill: #6b6b6b;
      }

      .cls-3 {
        fill: #0ca579;
      }

      .cls-4 {
        fill: none;
      }

      .cls-5 {
        fill: #c1c1c1;
      }
    </style>
  </defs>
  <polygon class="cls-4" points="251.76 164.29 120.57 238.37 120.57 124.23 251.76 50.15 251.76 164.29"/>
  <g>
    <polygon class="cls-4" points="166.11 0 166.11 114.14 166.11 114.14 251.76 162.51 251.76 48.36 166.11 0"/>
    <polygon class="cls-4" points="251.76 163.37 120.57 237.45 120.57 123.31 251.76 49.23 251.76 163.37"/>
  </g>
  <g>
    <g>
      <polygon class="cls-3" points="14.49 95.51 14.49 209.65 14.49 209.65 100.13 258.01 100.13 143.87 14.49 95.51"/>
      <polygon class="cls-1" points="145.68 135.57 14.49 209.65 14.49 95.5 145.68 21.42 145.68 135.57"/>
    </g>
    <g>
      <polygon class="cls-5" points="174.48 67.98 174.48 182.12 174.48 182.12 260.13 230.48 260.13 116.34 174.48 67.98"/>
      <polygon class="cls-2" points="260.13 231.35 128.94 305.43 128.94 191.29 260.13 117.21 260.13 231.35"/>
    </g>
  </g>
</svg>