<svg xmlns="http://www.w3.org/2000/svg" width="72" height="16" fill="none" viewBox="0 0 72 16">
    <g fill="#4D4D4D" clip-path="url(#clip0)">
        <path d="M34.63.509H22.12c-2.9 0-4.186 1.855-4.483 3.626V.509h-6.943c-.378-.036-.759.038-1.096.214-.338.175-.618.444-.809.775L6.885 4.345h27.742L34.63.51zM0 15.496h4.98l6.244-10.311-4.453-.45L0 15.495zM39.464.512h-4.101V4.35h4.1V.512zM65.501 6.507l-12.832-.78c0 2.008 1.29 3.354 3.487 3.538l9.14.72c.703.059 1.143.239 1.143.838 0 .571-.496.78-1.523.78H52.464v3.896H65.18c4.014 0 5.771-1.44 5.771-4.706 0-2.938-1.582-4.046-5.449-4.286z"/>
        <path d="M52.502 5.727l-4.044-.24v4.407c0 1.379-.675 1.799-3.018 1.799h-3.222c-1.934 0-2.754-.571-2.754-1.799V5.068l-4.102-.3v5.485h-.087c-.234-1.588-.82-3.447-4.717-3.717l-12.832-.869c0 2.008 1.405 3.207 3.602 3.447l8.937.928c.703.06 1.23.27 1.23.87 0 .658-.527.718-1.348.718H17.58V5.636l-4.101-.27V15.5h16.7c3.72 0 4.922-1.978 5.098-3.627h.088c.47 2.608 2.696 3.627 6.475 3.627h4.16c4.425 0 6.505-1.379 6.505-4.617l-.002-5.156zM70.666 4.349V.509h-13.77c-2.866 0-4.16 1.816-4.386 3.568 0 .02-.005.04-.008.06V.509h-4.044v3.836h22.207l.001.004z"/>
    </g>
    <defs>
        <clipPath id="clip0">
            <path fill="#fff" d="M0 0H71.786V15H0z" transform="translate(0 .5)"/>
        </clipPath>
    </defs>
</svg>
